<?xml version="1.0" encoding="UTF-8"?>
<svg id="Layer_1" xmlns="http://www.w3.org/2000/svg" version="1.1" viewBox="0 0 240 50">
  <!-- Generator: Adobe Illustrator 29.0.1, SVG Export Plug-In . SVG Version: 2.1.0 Build 192)  -->
  <defs>
    <style>
      .st0 {
        fill: #f9751c;
      }

      .st1 {
        fill: #ea6400;
      }

      .st2 {
        fill: #70a700;
      }

      .st3 {
        fill: #f76c06;
      }

      .st4 {
        fill: #e3e3e3;
      }

      .st5 {
        fill: #bfbfbf;
      }

      .st6 {
        fill: #ff8a3b;
      }

      .st7 {
        fill: #689300;
      }

      .st8 {
        fill: #ce5706;
      }

      .st9 {
        fill: #e55c00;
      }

      .st10 {
        fill: gray;
      }

      .st11 {
        fill: #c6c6c6;
      }

      .st12 {
        fill: #d1d1d1;
      }

      .st13 {
        fill: #9d9d9d;
      }
    </style>
  </defs>
  <g>
    <path class="st2" d="M33.79,10.4L36.65.25h0c1.78.5,2.63,2.54,1.74,4.16l-1.44,2.6,3.55-2.74c.94-.73,2.31-.45,2.89.59h0c.59,1.05.1,2.37-1.03,2.79l-4.48,1.64,3.92-.12c1.27-.04,2.21,1.16,1.89,2.38h0c-.28,1.05-1.39,1.65-2.42,1.31l-7.47-2.46h0Z"/>
    <path class="st7" d="M33.98,10.45L36.84.3h0c-1.78-.5-3.57.79-3.65,2.64l-.13,2.97-1.59-4.19c-.42-1.11-1.74-1.59-2.78-1.01h0c-1.05.59-1.32,1.97-.57,2.92l2.97,3.74-3.28-2.15c-1.06-.69-2.49-.17-2.85,1.05h0c-.31,1.04.32,2.13,1.38,2.38l7.65,1.81h0Z"/>
    <path class="st3" d="M44.4,20.06c1.16-4.13-3.37-9.03-10.12-10.93-6.75-1.9-13.17-.1-14.34,4.04-.04.14-.07.28-.1.42-.67,2.59-4.08,16.86-1.31,30.46.24,2.61,1.88,4.86,4.34,5.56,2.37.67,4.84-.29,6.42-2.24,11.75-12.91,15.11-27.3,15.11-27.3Z"/>
    <path class="st0" d="M44.4,20.06c1.16-4.13-3.37-9.03-10.12-10.93-.69-.2-1.38-.35-2.06-.47,5.62,2.22,9.16,6.54,8.12,10.25,0,0-3.36,14.39-15.11,27.3-1.1,1.36-2.64,2.23-4.27,2.41.56.43,1.2.77,1.92.97,2.37.67,4.84-.29,6.42-2.24,11.75-12.91,15.11-27.3,15.11-27.3Z"/>
    <path class="st1" d="M23.44,42.29c-1.74-13.31,1.77-27.55,2.45-30.14.03-.14.06-.28.1-.42.38-1.36,1.24-2.49,2.41-3.35-4.26.15-7.64,1.89-8.46,4.78-.04.14-.07.28-.1.42-.67,2.59-4.08,16.86-1.31,30.46.24,2.61,1.88,4.86,4.34,5.56,2.29.64,4.67-.23,6.25-2.05-.75.22-1.52.24-2.27.03-2.04-.58-3.33-2.73-3.41-5.29Z"/>
    <path class="st6" d="M42.82,21.33c-.5,1.77-1.67,2.98-2.63,2.71-.95-.27-1.32-1.92-.83-3.68.5-1.77,1.67-2.98,2.63-2.71.95.27,1.32,1.92.83,3.68Z"/>
    <path class="st9" d="M35.37,13.3c-.06.21-1.04.12-2.2-.21-1.16-.33-2.04-.76-1.99-.97.06-.21,1.04-.12,2.2.21,1.16.33,2.04.76,1.99.97Z"/>
    <path class="st9" d="M38.86,19.87c-.08.28-1.62.08-3.45-.43-1.83-.52-3.25-1.16-3.17-1.43.08-.28,1.62-.08,3.45.43,1.83.52,3.25,1.16,3.17,1.43Z"/>
    <path class="st9" d="M27.18,23.69c-.08.28-1.62.08-3.45-.43-1.83-.52-3.25-1.16-3.17-1.43s1.62-.08,3.45.43c1.83.52,3.25,1.16,3.17,1.43Z"/>
    <path class="st8" d="M20.56,21.83c-.08.28,1.34.92,3.17,1.43,0,0,.01,0,.02,0,.05-.35.1-.7.14-1.04-1.78-.49-3.26-.67-3.33-.4Z"/>
    <path class="st9" d="M29.13,19.61c-.05.19-.77.15-1.61-.09-.84-.24-1.47-.58-1.42-.77.05-.19.77-.15,1.61.09.84.24,1.47.58,1.42.77Z"/>
    <path class="st9" d="M38.2,24.47c-.07.24-1.23.12-2.6-.26-1.37-.39-2.42-.89-2.35-1.13.07-.24,1.23-.12,2.6.26,1.37.39,2.42.89,2.35,1.13Z"/>
    <path class="st9" d="M31.61,28.88c-.04.13-.83.03-1.76-.24-.94-.26-1.66-.59-1.63-.72.04-.13.83-.03,1.76.24s1.66.59,1.63.72Z"/>
    <path class="st9" d="M25.64,31.8c-.07.24-1.01.18-2.11-.12-1.1-.31-1.93-.76-1.87-1,.07-.24,1.01-.18,2.11.12s1.93.76,1.87,1Z"/>
    <path class="st9" d="M34.74,36.77c-.08.29-1.89.04-4.03-.56-2.14-.6-3.81-1.33-3.73-1.63.08-.29,1.89-.04,4.03.56,2.14.6,3.81,1.33,3.73,1.63Z"/>
    <path class="st9" d="M26.48,38.41c-.07.24-1.13.15-2.37-.2-1.24-.35-2.19-.83-2.13-1.07.07-.24,1.13-.15,2.37.2,1.24.35,2.19.83,2.13,1.07Z"/>
    <path class="st9" d="M29.82,42.6c-.07.24-.68.28-1.38.08-.69-.2-1.2-.55-1.13-.79.07-.24.68-.28,1.38-.08.69.2,1.2.55,1.13.79Z"/>
    <path class="st8" d="M23.67,43c-.06.21-.8.19-1.65-.05-.85-.24-1.49-.61-1.43-.82.06-.21.8-.19,1.65.05.85.24,1.49.61,1.43.82Z"/>
    <path class="st8" d="M22.78,34.34c-.05.19-1.03.07-2.19-.25-1.16-.33-2.05-.74-2-.93.05-.19,1.03-.07,2.19.25,1.16.33,2.05.74,2,.93Z"/>
    <path class="st9" d="M38.5,33.01c-.05.19-1.19.04-2.54-.34-1.35-.38-2.4-.84-2.34-1.04.05-.19,1.19-.04,2.54.34,1.35.38,2.4.84,2.34,1.04Z"/>
    <path class="st9" d="M39.1,27.91c-.05.16-.84.08-1.78-.19-.94-.26-1.66-.61-1.61-.77.05-.16.84-.08,1.78.19.94.26,1.66.61,1.61.77Z"/>
    <path class="st9" d="M41.71,15.3c-.03.11-.78-.01-1.67-.27-.89-.25-1.59-.54-1.57-.65s.78.01,1.67.27c.89.25,1.59.54,1.57.65Z"/>
    <g>
      <path class="st3" d="M34.74,36.77c.05-.19-.65-.58-1.75-.99-.17.28-.35.57-.53.86,1.3.27,2.22.34,2.28.13Z"/>
      <path class="st3" d="M29.82,42.6c.06-.22-.36-.54-.97-.74-.19.25-.39.51-.59.76.06.02.12.04.18.06.69.2,1.31.16,1.38-.08Z"/>
      <path class="st3" d="M38.5,33.01c.05-.19-1-.66-2.34-1.04-.32-.09-.62-.17-.9-.23-.1.2-.21.4-.32.6.31.11.65.22,1.02.32,1.35.38,2.49.53,2.54.34Z"/>
      <path class="st3" d="M39.1,27.91c.05-.16-.68-.51-1.61-.77-.01,0-.03,0-.04-.01-.08.18-.16.37-.24.56.04.01.08.02.12.04.94.26,1.73.35,1.78.19Z"/>
      <path class="st3" d="M41.71,15.3c.03-.11-.67-.39-1.57-.65-.17-.05-.34-.09-.5-.13.09.16.17.31.24.47.05.01.1.03.15.04.89.25,1.64.37,1.67.27Z"/>
    </g>
    <path class="st9" d="M28.24,14.97c-.07.24-1.31.1-2.78-.31s-2.6-.94-2.54-1.19c.07-.24,1.31-.1,2.78.31,1.47.41,2.6.94,2.54,1.19Z"/>
    <g>
      <path class="st8" d="M21.66,30.68c-.06.2.52.55,1.36.84.01-.3.02-.59.04-.88-.77-.15-1.35-.14-1.4.04Z"/>
      <path class="st8" d="M21.98,37.15c-.05.16.39.44,1.06.71-.01-.27-.02-.54-.04-.8-.58-.08-.99-.05-1.03.09Z"/>
      <path class="st8" d="M22.92,13.47c-.07.23.99.73,2.38,1.14.07-.32.14-.61.2-.88-1.38-.37-2.52-.49-2.58-.26Z"/>
    </g>
    <path class="st8" d="M24.01,15.95c-.04.14-.77.05-1.64-.19-.87-.24-1.54-.56-1.5-.69.04-.14.77-.05,1.64.19s1.54.56,1.5.69Z"/>
    <path class="st8" d="M25.46,47.35c-.06.2-.79.16-1.64-.08-.85-.24-1.5-.59-1.44-.79.06-.2.79-.16,1.64.08s1.5.59,1.44.79Z"/>
  </g>
  <g>
    <path class="st2" d="M78.28,10.4L81.14.25h0c1.78.5,2.63,2.54,1.74,4.16l-1.44,2.6,3.55-2.74c.94-.73,2.31-.45,2.89.59h0c.59,1.05.1,2.37-1.03,2.79l-4.48,1.64,3.92-.12c1.27-.04,2.21,1.16,1.89,2.38h0c-.28,1.05-1.39,1.65-2.42,1.31l-7.47-2.46h0Z"/>
    <path class="st7" d="M78.47,10.45l2.86-10.15h0c-1.78-.5-3.57.79-3.65,2.64l-.13,2.97-1.59-4.19c-.42-1.11-1.74-1.59-2.78-1.01h0c-1.05.59-1.32,1.97-.57,2.92l2.97,3.74-3.28-2.15c-1.06-.69-2.49-.17-2.85,1.05h0c-.31,1.04.32,2.13,1.38,2.38l7.65,1.81h0Z"/>
    <path class="st3" d="M88.89,20.06c1.16-4.13-3.37-9.03-10.12-10.93-6.75-1.9-13.17-.1-14.34,4.04-.04.14-.07.28-.1.42-.67,2.59-4.08,16.86-1.31,30.46.24,2.61,1.88,4.86,4.34,5.56,2.37.67,4.84-.29,6.42-2.24,11.75-12.91,15.11-27.3,15.11-27.3Z"/>
    <path class="st0" d="M88.89,20.06c1.16-4.13-3.37-9.03-10.12-10.93-.69-.2-1.38-.35-2.06-.47,5.62,2.22,9.16,6.54,8.12,10.25,0,0-3.36,14.39-15.11,27.3-1.1,1.36-2.64,2.23-4.27,2.41.56.43,1.2.77,1.92.97,2.37.67,4.84-.29,6.42-2.24,11.75-12.91,15.11-27.3,15.11-27.3Z"/>
    <path class="st1" d="M67.93,42.29c-1.74-13.31,1.77-27.55,2.45-30.14.03-.14.06-.28.1-.42.38-1.36,1.24-2.49,2.41-3.35-4.26.15-7.64,1.89-8.46,4.78-.04.14-.07.28-.1.42-.67,2.59-4.08,16.86-1.31,30.46.24,2.61,1.88,4.86,4.34,5.56,2.29.64,4.67-.23,6.25-2.05-.75.22-1.52.24-2.27.03-2.04-.58-3.33-2.73-3.41-5.29Z"/>
    <path class="st6" d="M87.31,21.33c-.5,1.77-1.67,2.98-2.63,2.71-.95-.27-1.32-1.92-.83-3.68.5-1.77,1.67-2.98,2.63-2.71.95.27,1.32,1.92.83,3.68Z"/>
    <path class="st9" d="M79.86,13.3c-.06.21-1.04.12-2.2-.21-1.16-.33-2.04-.76-1.99-.97.06-.21,1.04-.12,2.2.21,1.16.33,2.04.76,1.99.97Z"/>
    <path class="st9" d="M83.34,19.87c-.08.28-1.62.08-3.45-.43-1.83-.52-3.25-1.16-3.17-1.43.08-.28,1.62-.08,3.45.43,1.83.52,3.25,1.16,3.17,1.43Z"/>
    <path class="st9" d="M71.67,23.69c-.08.28-1.62.08-3.45-.43-1.83-.52-3.25-1.16-3.17-1.43s1.62-.08,3.45.43c1.83.52,3.25,1.16,3.17,1.43Z"/>
    <path class="st8" d="M65.05,21.83c-.08.28,1.34.92,3.17,1.43,0,0,.01,0,.02,0,.05-.35.1-.7.14-1.04-1.78-.49-3.26-.67-3.33-.4Z"/>
    <path class="st9" d="M73.62,19.61c-.05.19-.77.15-1.61-.09-.84-.24-1.47-.58-1.42-.77.05-.19.77-.15,1.61.09.84.24,1.47.58,1.42.77Z"/>
    <path class="st9" d="M82.69,24.47c-.07.24-1.23.12-2.6-.26-1.37-.39-2.42-.89-2.35-1.13.07-.24,1.23-.12,2.6.26,1.37.39,2.42.89,2.35,1.13Z"/>
    <path class="st9" d="M76.1,28.88c-.04.13-.83.03-1.76-.24-.94-.26-1.66-.59-1.63-.72.04-.13.83-.03,1.76.24s1.66.59,1.63.72Z"/>
    <path class="st9" d="M70.13,31.8c-.07.24-1.01.18-2.11-.12-1.1-.31-1.93-.76-1.87-1,.07-.24,1.01-.18,2.11.12s1.93.76,1.87,1Z"/>
    <path class="st9" d="M79.23,36.77c-.08.29-1.89.04-4.03-.56-2.14-.6-3.81-1.33-3.73-1.63.08-.29,1.89-.04,4.03.56,2.14.6,3.81,1.33,3.73,1.63Z"/>
    <path class="st9" d="M70.97,38.41c-.07.24-1.13.15-2.37-.2-1.24-.35-2.19-.83-2.13-1.07.07-.24,1.13-.15,2.37.2,1.24.35,2.19.83,2.13,1.07Z"/>
    <path class="st9" d="M74.31,42.6c-.07.24-.68.28-1.38.08-.69-.2-1.2-.55-1.13-.79.07-.24.68-.28,1.38-.08.69.2,1.2.55,1.13.79Z"/>
    <path class="st8" d="M68.15,43c-.06.21-.8.19-1.65-.05-.85-.24-1.49-.61-1.43-.82.06-.21.8-.19,1.65.05.85.24,1.49.61,1.43.82Z"/>
    <path class="st8" d="M67.26,34.34c-.05.19-1.03.07-2.19-.25-1.16-.33-2.05-.74-2-.93.05-.19,1.03-.07,2.19.25,1.16.33,2.05.74,2,.93Z"/>
    <path class="st9" d="M82.99,33.01c-.05.19-1.19.04-2.54-.34-1.35-.38-2.4-.84-2.34-1.04.05-.19,1.19-.04,2.54.34,1.35.38,2.4.84,2.34,1.04Z"/>
    <path class="st9" d="M83.59,27.91c-.05.16-.84.08-1.78-.19-.94-.26-1.66-.61-1.61-.77.05-.16.84-.08,1.78.19.94.26,1.66.61,1.61.77Z"/>
    <path class="st9" d="M86.2,15.3c-.03.11-.78-.01-1.67-.27-.89-.25-1.59-.54-1.57-.65s.78.01,1.67.27c.89.25,1.59.54,1.57.65Z"/>
    <g>
      <path class="st3" d="M79.23,36.77c.05-.19-.65-.58-1.75-.99-.17.28-.35.57-.53.86,1.3.27,2.22.34,2.28.13Z"/>
      <path class="st3" d="M74.31,42.6c.06-.22-.36-.54-.97-.74-.19.25-.39.51-.59.76.06.02.12.04.18.06.69.2,1.31.16,1.38-.08Z"/>
      <path class="st3" d="M82.99,33.01c.05-.19-1-.66-2.34-1.04-.32-.09-.62-.17-.9-.23-.1.2-.21.4-.32.6.31.11.65.22,1.02.32,1.35.38,2.49.53,2.54.34Z"/>
      <path class="st3" d="M83.59,27.91c.05-.16-.68-.51-1.61-.77-.01,0-.03,0-.04-.01-.08.18-.16.37-.24.56.04.01.08.02.12.04.94.26,1.73.35,1.78.19Z"/>
      <path class="st3" d="M86.2,15.3c.03-.11-.67-.39-1.57-.65-.17-.05-.34-.09-.5-.13.09.16.17.31.24.47.05.01.1.03.15.04.89.25,1.64.37,1.67.27Z"/>
    </g>
    <path class="st9" d="M72.72,14.97c-.07.24-1.31.1-2.78-.31s-2.6-.94-2.54-1.19c.07-.24,1.31-.1,2.78.31,1.47.41,2.6.94,2.54,1.19Z"/>
    <g>
      <path class="st8" d="M66.15,30.68c-.06.2.52.55,1.36.84.01-.3.02-.59.04-.88-.77-.15-1.35-.14-1.4.04Z"/>
      <path class="st8" d="M66.47,37.15c-.05.16.39.44,1.06.71-.01-.27-.02-.54-.04-.8-.58-.08-.99-.05-1.03.09Z"/>
      <path class="st8" d="M67.4,13.47c-.07.23.99.73,2.38,1.14.07-.32.14-.61.2-.88-1.38-.37-2.52-.49-2.58-.26Z"/>
    </g>
    <path class="st8" d="M68.5,15.95c-.04.14-.77.05-1.64-.19-.87-.24-1.54-.56-1.5-.69.04-.14.77-.05,1.64.19s1.54.56,1.5.69Z"/>
    <path class="st8" d="M69.95,47.35c-.06.2-.79.16-1.64-.08-.85-.24-1.5-.59-1.44-.79.06-.2.79-.16,1.64.08s1.5.59,1.44.79Z"/>
  </g>
  <g>
    <path class="st2" d="M122.76,10.4L125.63.25h0c1.78.5,2.63,2.54,1.74,4.16l-1.44,2.6,3.55-2.74c.94-.73,2.31-.45,2.89.59h0c.59,1.05.1,2.37-1.03,2.79l-4.48,1.64,3.92-.12c1.27-.04,2.21,1.16,1.89,2.38h0c-.28,1.05-1.39,1.65-2.42,1.31l-7.47-2.46h0Z"/>
    <path class="st7" d="M122.96,10.45l2.86-10.15h0c-1.78-.5-3.57.79-3.65,2.64l-.13,2.97-1.59-4.19c-.42-1.11-1.74-1.59-2.78-1.01h0c-1.05.59-1.32,1.97-.57,2.92l2.97,3.74-3.28-2.15c-1.06-.69-2.49-.17-2.85,1.05h0c-.31,1.04.32,2.13,1.38,2.38l7.65,1.81h0Z"/>
    <path class="st3" d="M133.38,20.06c1.16-4.13-3.37-9.03-10.12-10.93-6.75-1.9-13.17-.1-14.34,4.04-.04.14-.07.28-.1.42-.67,2.59-4.08,16.86-1.31,30.46.24,2.61,1.88,4.86,4.34,5.56,2.37.67,4.84-.29,6.42-2.24,11.75-12.91,15.11-27.3,15.11-27.3Z"/>
    <path class="st0" d="M133.38,20.06c1.16-4.13-3.37-9.03-10.12-10.93-.69-.2-1.38-.35-2.06-.47,5.62,2.22,9.16,6.54,8.12,10.25,0,0-3.36,14.39-15.11,27.3-1.1,1.36-2.64,2.23-4.27,2.41.56.43,1.2.77,1.92.97,2.37.67,4.84-.29,6.42-2.24,11.75-12.91,15.11-27.3,15.11-27.3Z"/>
    <path class="st1" d="M112.42,42.29c-1.74-13.31,1.77-27.55,2.45-30.14.03-.14.06-.28.1-.42.38-1.36,1.24-2.49,2.41-3.35-4.26.15-7.64,1.89-8.46,4.78-.04.14-.07.28-.1.42-.67,2.59-4.08,16.86-1.31,30.46.24,2.61,1.88,4.86,4.34,5.56,2.29.64,4.67-.23,6.25-2.05-.75.22-1.52.24-2.27.03-2.04-.58-3.33-2.73-3.41-5.29Z"/>
    <path class="st6" d="M131.79,21.33c-.5,1.77-1.67,2.98-2.63,2.71-.95-.27-1.32-1.92-.83-3.68.5-1.77,1.67-2.98,2.63-2.71.95.27,1.32,1.92.83,3.68Z"/>
    <path class="st9" d="M124.35,13.3c-.06.21-1.04.12-2.2-.21-1.16-.33-2.04-.76-1.99-.97.06-.21,1.04-.12,2.2.21,1.16.33,2.04.76,1.99.97Z"/>
    <path class="st9" d="M127.83,19.87c-.08.28-1.62.08-3.45-.43-1.83-.52-3.25-1.16-3.17-1.43.08-.28,1.62-.08,3.45.43,1.83.52,3.25,1.16,3.17,1.43Z"/>
    <path class="st9" d="M116.16,23.69c-.08.28-1.62.08-3.45-.43-1.83-.52-3.25-1.16-3.17-1.43s1.62-.08,3.45.43c1.83.52,3.25,1.16,3.17,1.43Z"/>
    <path class="st8" d="M109.54,21.83c-.08.28,1.34.92,3.17,1.43,0,0,.01,0,.02,0,.05-.35.1-.7.14-1.04-1.78-.49-3.26-.67-3.33-.4Z"/>
    <path class="st9" d="M118.11,19.61c-.05.19-.77.15-1.61-.09-.84-.24-1.47-.58-1.42-.77.05-.19.77-.15,1.61.09.84.24,1.47.58,1.42.77Z"/>
    <path class="st9" d="M127.18,24.47c-.07.24-1.23.12-2.6-.26-1.37-.39-2.42-.89-2.35-1.13.07-.24,1.23-.12,2.6.26,1.37.39,2.42.89,2.35,1.13Z"/>
    <path class="st9" d="M120.59,28.88c-.04.13-.83.03-1.76-.24-.94-.26-1.66-.59-1.63-.72.04-.13.83-.03,1.76.24s1.66.59,1.63.72Z"/>
    <path class="st9" d="M114.61,31.8c-.07.24-1.01.18-2.11-.12-1.1-.31-1.93-.76-1.87-1,.07-.24,1.01-.18,2.11.12s1.93.76,1.87,1Z"/>
    <path class="st9" d="M123.71,36.77c-.08.29-1.89.04-4.03-.56-2.14-.6-3.81-1.33-3.73-1.63.08-.29,1.89-.04,4.03.56,2.14.6,3.81,1.33,3.73,1.63Z"/>
    <path class="st9" d="M115.46,38.41c-.07.24-1.13.15-2.37-.2-1.24-.35-2.19-.83-2.13-1.07.07-.24,1.13-.15,2.37.2,1.24.35,2.19.83,2.13,1.07Z"/>
    <path class="st9" d="M118.8,42.6c-.07.24-.68.28-1.38.08-.69-.2-1.2-.55-1.13-.79.07-.24.68-.28,1.38-.08.69.2,1.2.55,1.13.79Z"/>
    <path class="st8" d="M112.64,43c-.06.21-.8.19-1.65-.05-.85-.24-1.49-.61-1.43-.82.06-.21.8-.19,1.65.05.85.24,1.49.61,1.43.82Z"/>
    <path class="st8" d="M111.75,34.34c-.05.19-1.03.07-2.19-.25-1.16-.33-2.05-.74-2-.93.05-.19,1.03-.07,2.19.25,1.16.33,2.05.74,2,.93Z"/>
    <path class="st9" d="M127.47,33.01c-.05.19-1.19.04-2.54-.34-1.35-.38-2.4-.84-2.34-1.04.05-.19,1.19-.04,2.54.34,1.35.38,2.4.84,2.34,1.04Z"/>
    <path class="st9" d="M128.07,27.91c-.05.16-.84.08-1.78-.19-.94-.26-1.66-.61-1.61-.77.05-.16.84-.08,1.78.19.94.26,1.66.61,1.61.77Z"/>
    <path class="st9" d="M130.69,15.3c-.03.11-.78-.01-1.67-.27-.89-.25-1.59-.54-1.57-.65s.78.01,1.67.27c.89.25,1.59.54,1.57.65Z"/>
    <g>
      <path class="st3" d="M123.71,36.77c.05-.19-.65-.58-1.75-.99-.17.28-.35.57-.53.86,1.3.27,2.22.34,2.28.13Z"/>
      <path class="st3" d="M118.8,42.6c.06-.22-.36-.54-.97-.74-.19.25-.39.51-.59.76.06.02.12.04.18.06.69.2,1.31.16,1.38-.08Z"/>
      <path class="st3" d="M127.47,33.01c.05-.19-1-.66-2.34-1.04-.32-.09-.62-.17-.9-.23-.1.2-.21.4-.32.6.31.11.65.22,1.02.32,1.35.38,2.49.53,2.54.34Z"/>
      <path class="st3" d="M128.07,27.91c.05-.16-.68-.51-1.61-.77-.01,0-.03,0-.04-.01-.08.18-.16.37-.24.56.04.01.08.02.12.04.94.26,1.73.35,1.78.19Z"/>
      <path class="st3" d="M130.69,15.3c.03-.11-.67-.39-1.57-.65-.17-.05-.34-.09-.5-.13.09.16.17.31.24.47.05.01.1.03.15.04.89.25,1.64.37,1.67.27Z"/>
    </g>
    <path class="st9" d="M117.21,14.97c-.07.24-1.31.1-2.78-.31s-2.6-.94-2.54-1.19c.07-.24,1.31-.1,2.78.31,1.47.41,2.6.94,2.54,1.19Z"/>
    <g>
      <path class="st8" d="M110.64,30.68c-.06.2.52.55,1.36.84.01-.3.02-.59.04-.88-.77-.15-1.35-.14-1.4.04Z"/>
      <path class="st8" d="M110.96,37.15c-.05.16.39.44,1.06.71-.01-.27-.02-.54-.04-.8-.58-.08-.99-.05-1.03.09Z"/>
      <path class="st8" d="M111.89,13.47c-.07.23.99.73,2.38,1.14.07-.32.14-.61.2-.88-1.38-.37-2.52-.49-2.58-.26Z"/>
    </g>
    <path class="st8" d="M112.99,15.95c-.04.14-.77.05-1.64-.19-.87-.24-1.54-.56-1.5-.69.04-.14.77-.05,1.64.19s1.54.56,1.5.69Z"/>
    <path class="st8" d="M114.44,47.35c-.06.2-.79.16-1.64-.08-.85-.24-1.5-.59-1.44-.79.06-.2.79-.16,1.64.08s1.5.59,1.44.79Z"/>
  </g>
  <g>
    <path class="st5" d="M167.25,10.4l2.86-10.15h0c1.78.5,2.63,2.54,1.74,4.16l-1.44,2.6,3.55-2.74c.94-.73,2.31-.45,2.89.59h0c.59,1.05.1,2.37-1.03,2.79l-4.48,1.64,3.92-.12c1.27-.04,2.21,1.16,1.89,2.38h0c-.28,1.05-1.39,1.65-2.42,1.31l-7.47-2.46h0Z"/>
    <path class="st10" d="M167.45,10.45l2.86-10.15h0c-1.78-.5-3.57.79-3.65,2.64l-.13,2.97-1.59-4.19c-.42-1.11-1.74-1.59-2.78-1.01h0c-1.05.59-1.32,1.97-.57,2.92l2.97,3.74-3.28-2.15c-1.06-.69-2.49-.17-2.85,1.05h0c-.31,1.04.32,2.13,1.38,2.38l7.65,1.81h0Z"/>
    <path class="st12" d="M177.86,20.06c1.16-4.13-3.37-9.03-10.12-10.93-6.75-1.9-13.17-.1-14.34,4.04-.04.14-.07.28-.1.42-.67,2.59-4.08,16.86-1.31,30.46.24,2.61,1.88,4.86,4.34,5.56,2.37.67,4.84-.29,6.42-2.24,11.75-12.91,15.11-27.3,15.11-27.3Z"/>
    <path class="st4" d="M177.86,20.06c1.16-4.13-3.37-9.03-10.12-10.93-.69-.2-1.38-.35-2.06-.47,5.62,2.22,9.16,6.54,8.12,10.25,0,0-3.36,14.39-15.11,27.3-1.1,1.36-2.64,2.23-4.27,2.41.56.43,1.2.77,1.92.97,2.37.67,4.84-.29,6.42-2.24,11.75-12.91,15.11-27.3,15.11-27.3Z"/>
    <path class="st5" d="M156.9,42.29c-1.74-13.31,1.77-27.55,2.45-30.14.03-.14.06-.28.1-.42.38-1.36,1.24-2.49,2.41-3.35-4.26.15-7.64,1.89-8.46,4.78-.04.14-.07.28-.1.42-.67,2.59-4.08,16.86-1.31,30.46.24,2.61,1.88,4.86,4.34,5.56,2.29.64,4.67-.23,6.25-2.05-.75.22-1.52.24-2.27.03-2.04-.58-3.33-2.73-3.41-5.29Z"/>
    <path class="st11" d="M176.28,21.33c-.5,1.77-1.67,2.98-2.63,2.71-.95-.27-1.32-1.92-.83-3.68.5-1.77,1.67-2.98,2.63-2.71.95.27,1.32,1.92.83,3.68Z"/>
    <path class="st13" d="M168.83,13.3c-.06.21-1.04.12-2.2-.21-1.16-.33-2.04-.76-1.99-.97.06-.21,1.04-.12,2.2.21,1.16.33,2.04.76,1.99.97Z"/>
    <path class="st13" d="M172.32,19.87c-.08.28-1.62.08-3.45-.43-1.83-.52-3.25-1.16-3.17-1.43.08-.28,1.62-.08,3.45.43,1.83.52,3.25,1.16,3.17,1.43Z"/>
    <path class="st13" d="M160.64,23.69c-.08.28-1.62.08-3.45-.43-1.83-.52-3.25-1.16-3.17-1.43s1.62-.08,3.45.43c1.83.52,3.25,1.16,3.17,1.43Z"/>
    <path class="st13" d="M154.02,21.83c-.08.28,1.34.92,3.17,1.43,0,0,.01,0,.02,0,.05-.35.1-.7.14-1.04-1.78-.49-3.26-.67-3.33-.4Z"/>
    <path class="st13" d="M162.59,19.61c-.05.19-.77.15-1.61-.09-.84-.24-1.47-.58-1.42-.77.05-.19.77-.15,1.61.09.84.24,1.47.58,1.42.77Z"/>
    <path class="st13" d="M171.67,24.47c-.07.24-1.23.12-2.6-.26-1.37-.39-2.42-.89-2.35-1.13.07-.24,1.23-.12,2.6.26,1.37.39,2.42.89,2.35,1.13Z"/>
    <path class="st13" d="M165.07,28.88c-.04.13-.83.03-1.76-.24-.94-.26-1.66-.59-1.63-.72.04-.13.83-.03,1.76.24s1.66.59,1.63.72Z"/>
    <path class="st13" d="M159.1,31.8c-.07.24-1.01.18-2.11-.12-1.1-.31-1.93-.76-1.87-1,.07-.24,1.01-.18,2.11.12s1.93.76,1.87,1Z"/>
    <path class="st13" d="M168.2,36.77c-.08.29-1.89.04-4.03-.56-2.14-.6-3.81-1.33-3.73-1.63.08-.29,1.89-.04,4.03.56,2.14.6,3.81,1.33,3.73,1.63Z"/>
    <path class="st13" d="M159.95,38.41c-.07.24-1.13.15-2.37-.2-1.24-.35-2.19-.83-2.13-1.07.07-.24,1.13-.15,2.37.2,1.24.35,2.19.83,2.13,1.07Z"/>
    <path class="st13" d="M163.28,42.6c-.07.24-.68.28-1.38.08-.69-.2-1.2-.55-1.13-.79.07-.24.68-.28,1.38-.08.69.2,1.2.55,1.13.79Z"/>
    <path class="st13" d="M157.13,43c-.06.21-.8.19-1.65-.05-.85-.24-1.49-.61-1.43-.82.06-.21.8-.19,1.65.05.85.24,1.49.61,1.43.82Z"/>
    <path class="st13" d="M156.24,34.34c-.05.19-1.03.07-2.19-.25-1.16-.33-2.05-.74-2-.93.05-.19,1.03-.07,2.19.25,1.16.33,2.05.74,2,.93Z"/>
    <path class="st13" d="M171.96,33.01c-.05.19-1.19.04-2.54-.34-1.35-.38-2.4-.84-2.34-1.04.05-.19,1.19-.04,2.54.34,1.35.38,2.4.84,2.34,1.04Z"/>
    <path class="st13" d="M172.56,27.91c-.05.16-.84.08-1.78-.19-.94-.26-1.66-.61-1.61-.77.05-.16.84-.08,1.78.19.94.26,1.66.61,1.61.77Z"/>
    <path class="st13" d="M175.18,15.3c-.03.11-.78-.01-1.67-.27-.89-.25-1.59-.54-1.57-.65s.78.01,1.67.27c.89.25,1.59.54,1.57.65Z"/>
    <g>
      <path class="st13" d="M168.2,36.77c.05-.19-.65-.58-1.75-.99-.17.28-.35.57-.53.86,1.3.27,2.22.34,2.28.13Z"/>
      <path class="st13" d="M163.29,42.6c.06-.22-.36-.54-.97-.74-.19.25-.39.51-.59.76.06.02.12.04.18.06.69.2,1.31.16,1.38-.08Z"/>
      <path class="st13" d="M171.96,33.01c.05-.19-1-.66-2.34-1.04-.32-.09-.62-.17-.9-.23-.1.2-.21.4-.32.6.31.11.65.22,1.02.32,1.35.38,2.49.53,2.54.34Z"/>
      <path class="st13" d="M172.56,27.91c.05-.16-.68-.51-1.61-.77-.01,0-.03,0-.04-.01-.08.18-.16.37-.24.56.04.01.08.02.12.04.94.26,1.73.35,1.78.19Z"/>
      <path class="st13" d="M175.18,15.3c.03-.11-.67-.39-1.57-.65-.17-.05-.34-.09-.5-.13.09.16.17.31.24.47.05.01.1.03.15.04.89.25,1.64.37,1.67.27Z"/>
    </g>
    <path class="st13" d="M161.7,14.97c-.07.24-1.31.1-2.78-.31s-2.6-.94-2.54-1.19c.07-.24,1.31-.1,2.78.31,1.47.41,2.6.94,2.54,1.19Z"/>
    <g>
      <path class="st13" d="M155.12,30.68c-.06.2.52.55,1.36.84.01-.3.02-.59.04-.88-.77-.15-1.35-.14-1.4.04Z"/>
      <path class="st13" d="M155.45,37.15c-.05.16.39.44,1.06.71-.01-.27-.02-.54-.04-.8-.58-.08-.99-.05-1.03.09Z"/>
      <path class="st13" d="M156.38,13.47c-.07.23.99.73,2.38,1.14.07-.32.14-.61.2-.88-1.38-.37-2.52-.49-2.58-.26Z"/>
    </g>
    <path class="st13" d="M157.48,15.95c-.04.14-.77.05-1.64-.19-.87-.24-1.54-.56-1.5-.69.04-.14.77-.05,1.64.19s1.54.56,1.5.69Z"/>
    <path class="st13" d="M158.92,47.35c-.06.2-.79.16-1.64-.08-.85-.24-1.5-.59-1.44-.79.06-.2.79-.16,1.64.08s1.5.59,1.44.79Z"/>
  </g>
  <g>
    <path class="st5" d="M211.74,10.4l2.86-10.15h0c1.78.5,2.63,2.54,1.74,4.16l-1.44,2.6,3.55-2.74c.94-.73,2.31-.45,2.89.59h0c.59,1.05.1,2.37-1.03,2.79l-4.48,1.64,3.92-.12c1.27-.04,2.21,1.16,1.89,2.38h0c-.28,1.05-1.39,1.65-2.42,1.31l-7.47-2.46h0Z"/>
    <path class="st10" d="M211.93,10.45l2.86-10.15h0c-1.78-.5-3.57.79-3.65,2.64l-.13,2.97-1.59-4.19c-.42-1.11-1.74-1.59-2.78-1.01h0c-1.05.59-1.32,1.97-.57,2.92l2.97,3.74-3.28-2.15c-1.06-.69-2.49-.17-2.85,1.05h0c-.31,1.04.32,2.13,1.38,2.38l7.65,1.81h0Z"/>
    <path class="st12" d="M222.35,20.06c1.16-4.13-3.37-9.03-10.12-10.93-6.75-1.9-13.17-.1-14.34,4.04-.04.14-.07.28-.1.42-.67,2.59-4.08,16.86-1.31,30.46.24,2.61,1.88,4.86,4.34,5.56,2.37.67,4.84-.29,6.42-2.24,11.75-12.91,15.11-27.3,15.11-27.3Z"/>
    <path class="st4" d="M222.35,20.06c1.16-4.13-3.37-9.03-10.12-10.93-.69-.2-1.38-.35-2.06-.47,5.62,2.22,9.16,6.54,8.12,10.25,0,0-3.36,14.39-15.11,27.3-1.1,1.36-2.64,2.23-4.27,2.41.56.43,1.2.77,1.92.97,2.37.67,4.84-.29,6.42-2.24,11.75-12.91,15.11-27.3,15.11-27.3Z"/>
    <path class="st5" d="M201.39,42.29c-1.74-13.31,1.77-27.55,2.45-30.14.03-.14.06-.28.1-.42.38-1.36,1.24-2.49,2.41-3.35-4.26.15-7.64,1.89-8.46,4.78-.04.14-.07.28-.1.42-.67,2.59-4.08,16.86-1.31,30.46.24,2.61,1.88,4.86,4.34,5.56,2.29.64,4.67-.23,6.25-2.05-.75.22-1.52.24-2.27.03-2.04-.58-3.33-2.73-3.41-5.29Z"/>
    <path class="st11" d="M220.77,21.33c-.5,1.77-1.67,2.98-2.63,2.71-.95-.27-1.32-1.92-.83-3.68.5-1.77,1.67-2.98,2.63-2.71.95.27,1.32,1.92.83,3.68Z"/>
    <path class="st13" d="M213.32,13.3c-.06.21-1.04.12-2.2-.21-1.16-.33-2.04-.76-1.99-.97.06-.21,1.04-.12,2.2.21,1.16.33,2.04.76,1.99.97Z"/>
    <path class="st13" d="M216.81,19.87c-.08.28-1.62.08-3.45-.43-1.83-.52-3.25-1.16-3.17-1.43.08-.28,1.62-.08,3.45.43,1.83.52,3.25,1.16,3.17,1.43Z"/>
    <path class="st13" d="M205.13,23.69c-.08.28-1.62.08-3.45-.43-1.83-.52-3.25-1.16-3.17-1.43s1.62-.08,3.45.43c1.83.52,3.25,1.16,3.17,1.43Z"/>
    <path class="st13" d="M198.51,21.83c-.08.28,1.34.92,3.17,1.43,0,0,.01,0,.02,0,.05-.35.1-.7.14-1.04-1.78-.49-3.26-.67-3.33-.4Z"/>
    <path class="st13" d="M207.08,19.61c-.05.19-.77.15-1.61-.09-.84-.24-1.47-.58-1.42-.77.05-.19.77-.15,1.61.09.84.24,1.47.58,1.42.77Z"/>
    <path class="st13" d="M216.16,24.47c-.07.24-1.23.12-2.6-.26-1.37-.39-2.42-.89-2.35-1.13.07-.24,1.23-.12,2.6.26,1.37.39,2.42.89,2.35,1.13Z"/>
    <path class="st13" d="M209.56,28.88c-.04.13-.83.03-1.76-.24-.94-.26-1.66-.59-1.63-.72.04-.13.83-.03,1.76.24s1.66.59,1.63.72Z"/>
    <path class="st13" d="M203.59,31.8c-.07.24-1.01.18-2.11-.12-1.1-.31-1.93-.76-1.87-1,.07-.24,1.01-.18,2.11.12s1.93.76,1.87,1Z"/>
    <path class="st13" d="M212.69,36.77c-.08.29-1.89.04-4.03-.56-2.14-.6-3.81-1.33-3.73-1.63.08-.29,1.89-.04,4.03.56,2.14.6,3.81,1.33,3.73,1.63Z"/>
    <path class="st13" d="M204.43,38.41c-.07.24-1.13.15-2.37-.2-1.24-.35-2.19-.83-2.13-1.07.07-.24,1.13-.15,2.37.2,1.24.35,2.19.83,2.13,1.07Z"/>
    <path class="st13" d="M207.77,42.6c-.07.24-.68.28-1.38.08-.69-.2-1.2-.55-1.13-.79.07-.24.68-.28,1.38-.08.69.2,1.2.55,1.13.79Z"/>
    <path class="st13" d="M201.62,43c-.06.21-.8.19-1.65-.05-.85-.24-1.49-.61-1.43-.82.06-.21.8-.19,1.65.05.85.24,1.49.61,1.43.82Z"/>
    <path class="st13" d="M200.73,34.34c-.05.19-1.03.07-2.19-.25-1.16-.33-2.05-.74-2-.93.05-.19,1.03-.07,2.19.25,1.16.33,2.05.74,2,.93Z"/>
    <path class="st13" d="M216.45,33.01c-.05.19-1.19.04-2.54-.34-1.35-.38-2.4-.84-2.34-1.04.05-.19,1.19-.04,2.54.34,1.35.38,2.4.84,2.34,1.04Z"/>
    <path class="st13" d="M217.05,27.91c-.05.16-.84.08-1.78-.19-.94-.26-1.66-.61-1.61-.77.05-.16.84-.08,1.78.19.94.26,1.66.61,1.61.77Z"/>
    <path class="st13" d="M219.66,15.3c-.03.11-.78-.01-1.67-.27-.89-.25-1.59-.54-1.57-.65s.78.01,1.67.27c.89.25,1.59.54,1.57.65Z"/>
    <g>
      <path class="st13" d="M212.69,36.77c.05-.19-.65-.58-1.75-.99-.17.28-.35.57-.53.86,1.3.27,2.22.34,2.28.13Z"/>
      <path class="st13" d="M207.77,42.6c.06-.22-.36-.54-.97-.74-.19.25-.39.51-.59.76.06.02.12.04.18.06.69.2,1.31.16,1.38-.08Z"/>
      <path class="st13" d="M216.45,33.01c.05-.19-1-.66-2.34-1.04-.32-.09-.62-.17-.9-.23-.1.2-.21.4-.32.6.31.11.65.22,1.02.32,1.35.38,2.49.53,2.54.34Z"/>
      <path class="st13" d="M217.05,27.91c.05-.16-.68-.51-1.61-.77-.01,0-.03,0-.04-.01-.08.18-.16.37-.24.56.04.01.08.02.12.04.94.26,1.73.35,1.78.19Z"/>
      <path class="st13" d="M219.66,15.3c.03-.11-.67-.39-1.57-.65-.17-.05-.34-.09-.5-.13.09.16.17.31.24.47.05.01.1.03.15.04.89.25,1.64.37,1.67.27Z"/>
    </g>
    <path class="st13" d="M206.19,14.97c-.07.24-1.31.1-2.78-.31s-2.6-.94-2.54-1.19c.07-.24,1.31-.1,2.78.31,1.47.41,2.6.94,2.54,1.19Z"/>
    <g>
      <path class="st13" d="M199.61,30.68c-.06.2.52.55,1.36.84.01-.3.02-.59.04-.88-.77-.15-1.35-.14-1.4.04Z"/>
      <path class="st13" d="M199.94,37.15c-.05.16.39.44,1.06.71-.01-.27-.02-.54-.04-.8-.58-.08-.99-.05-1.03.09Z"/>
      <path class="st13" d="M200.87,13.47c-.07.23.99.73,2.38,1.14.07-.32.14-.61.2-.88-1.38-.37-2.52-.49-2.58-.26Z"/>
    </g>
    <path class="st13" d="M201.97,15.95c-.04.14-.77.05-1.64-.19-.87-.24-1.54-.56-1.5-.69.04-.14.77-.05,1.64.19s1.54.56,1.5.69Z"/>
    <path class="st13" d="M203.41,47.35c-.06.2-.79.16-1.64-.08-.85-.24-1.5-.59-1.44-.79.06-.2.79-.16,1.64.08s1.5.59,1.44.79Z"/>
  </g>
</svg>