<?xml version="1.0" encoding="UTF-8"?>
<svg id="Layer_1" data-name="Layer 1" xmlns="http://www.w3.org/2000/svg" viewBox="0 0 100 100">
  <defs>
    <style>
      .cls-1 {
        fill: #69c0b0;
      }

      .cls-2 {
        fill: #fff;
      }
    </style>
  </defs>
  <rect class="cls-1" x="0" y="0" width="100" height="100" rx="50" ry="50"/>
  <path class="cls-2" d="M60.47,90.07c-.12-.93-.91-1.64-2.36-2.13s-3.04-.86-4.77-1.11c-2.04-.25-4.29-.4-6.76-.46-1.79,0-3.46.09-5,.28-1.36.12-2.67.36-3.94.7-1.27.34-2.15.79-2.64,1.34-.8.62-1.85.77-3.15.46-1.3-.31-2.16-1.36-2.59-3.15-.12-.68-.31-1.33-.56-1.95-.19-.49-.38-1.02-.6-1.57-.22-.56-.48-.99-.79-1.3.93-1.85,1.93-3.52,3.01-5,1.08-1.48,2.28-2.93,3.61-4.35,1.33-1.42,2.81-2.84,4.45-4.26,1.64-1.42,3.47-3.03,5.51-4.82,1.91-1.61,3.94-3.52,6.07-5.74,2.13-2.22,4.11-4.72,5.93-7.5,1.82-2.78,3.37-5.82,4.63-9.12,1.26-3.3,1.99-6.87,2.18-10.7.12-3.15-.42-5.34-1.62-6.58-1.2-1.24-2.7-1.85-4.49-1.85-.87,0-1.85.36-2.96,1.07-1.11.71-2.18,1.7-3.2,2.96-1.02,1.27-1.92,2.73-2.69,4.4-.77,1.67-1.19,3.43-1.25,5.28-.06.5-.03.96.09,1.39.12.37.26.73.42,1.07.15.34.42.6.79.79-.99.8-1.98,1.33-2.96,1.58-.5.12-.96.19-1.39.19-.5,0-1.08-.05-1.76-.14-.68-.09-1.31-.31-1.9-.65-.59-.34-1.08-.85-1.48-1.53-.4-.68-.57-1.6-.51-2.78.06-1.17.57-2.75,1.53-4.73.96-1.98,2.41-3.91,4.35-5.79,1.95-1.88,4.37-3.5,7.27-4.86,2.9-1.36,6.3-2.04,10.19-2.04,2.59,0,4.59.56,5.98,1.67s2.39,2.44,3.01,3.98c.62,1.54.96,3.1,1.02,4.68.06,1.58.06,2.86,0,3.84-.12,2.59-.73,5.25-1.81,7.97-1.08,2.72-2.47,5.4-4.17,8.06-1.7,2.66-3.61,5.25-5.74,7.78-2.13,2.53-4.28,4.91-6.44,7.13-2.16,2.22-4.28,4.26-6.35,6.11-2.07,1.85-3.88,3.43-5.42,4.72-1.67,1.42-2.95,2.84-3.84,4.26-.9,1.42-1.56,2.75-1.99,3.98,1.48-.74,3.52-1.48,6.11-2.22s5.56-1.11,8.89-1.11c1.98,0,3.8.09,5.47.28,1.42.12,2.78.36,4.08.69,1.3.34,2.19.82,2.69,1.44.12.68.19,1.3.19,1.85s-.03,1.08-.09,1.58c-.06.56-.15,1.05-.28,1.48-.12.5-.28.99-.46,1.48-.31.86-.8,1.85-1.48,2.96Z"/>
</svg>