<?xml version="1.0" encoding="UTF-8"?>
<svg id="Layer_1" data-name="Layer 1" xmlns="http://www.w3.org/2000/svg" viewBox="0 0 100 100">
  <defs>
    <style>
      .cls-1 {
        fill: #69c0b0;
      }

      .cls-2 {
        fill: #fff;
      }
    </style>
  </defs>
  <rect class="cls-1" x="0" y="0" width="100" height="100" rx="50" ry="50"/>
  <path class="cls-2" d="M44.47,85.99c-1.48,0-3.01-.42-4.59-1.25-1.57-.83-3-2.19-4.26-4.08-1.27-1.88-2.32-4.37-3.15-7.46-.83-3.09-1.28-6.89-1.34-11.4-.06-2.84.28-5.99,1.02-9.45.74-3.46,1.77-6.96,3.1-10.51,1.33-3.55,2.92-7,4.77-10.33,1.85-3.33,3.88-6.3,6.07-8.89,2.19-2.59,4.51-4.68,6.95-6.25,2.44-1.58,4.96-2.36,7.55-2.36,2.9,0,4.89.62,5.98,1.85,1.08,1.24,1.77,2.87,2.08,4.91.12.87.2,1.81.23,2.83.03,1.02-.06,2.02-.28,3.01-.22.99-.57,1.9-1.06,2.73-.5.83-1.17,1.5-2.04,1.99-.74.37-1.48.65-2.22.83-.68.19-1.45.28-2.32.28s-1.76-.15-2.69-.46c1.05-1.73,1.85-3.38,2.41-4.96.55-1.58.88-2.96.97-4.17.09-1.2-.06-2.16-.46-2.87-.4-.71-1-1.07-1.81-1.07-1.11,0-2.45.71-4.03,2.13-1.57,1.42-3.21,3.41-4.91,5.98-1.7,2.56-3.35,5.64-4.96,9.22-1.61,3.58-2.93,7.57-3.98,11.95,2.29-3.34,4.69-5.7,7.23-7.09,2.53-1.39,4.72-2.08,6.58-2.08,1.05,0,2.25.19,3.61.56,1.36.37,2.62,1.13,3.8,2.27,1.17,1.14,2.18,2.73,3.01,4.77.83,2.04,1.25,4.72,1.25,8.06s-.59,6.84-1.76,10.51c-1.17,3.67-2.79,7.06-4.86,10.14-2.07,3.09-4.48,5.64-7.23,7.64-2.75,2.01-5.64,3.01-8.66,3.01ZM40.39,53.94c-.31,1.98-.54,4.03-.7,6.16s-.23,4.31-.23,6.53c0,.68.09,1.79.28,3.33.19,1.54.51,3.09.97,4.63.46,1.54,1.1,2.9,1.9,4.08.8,1.17,1.85,1.76,3.15,1.76,1.73,0,3.43-1,5.1-3.01,1.67-2.01,3.16-4.48,4.49-7.41,1.33-2.93,2.38-6.02,3.15-9.26.77-3.24,1.16-6.13,1.16-8.66-.06-2.53-.45-4.52-1.16-5.98-.71-1.45-1.84-2.18-3.38-2.18-1.3,0-2.46.43-3.47,1.3-1.02.87-1.93,1.9-2.73,3.1-.8,1.2-1.48,2.46-2.04,3.75-.55,1.3-1.02,2.41-1.39,3.33-.68,1.61-1.22,2.46-1.62,2.55-.4.09-1-.29-1.81-1.16-.43-.31-.77-.73-1.02-1.25-.25-.52-.46-1.07-.65-1.62Z"/>
</svg>