<?xml version="1.0" encoding="UTF-8"?>
<svg id="Layer_1" data-name="Layer 1" xmlns="http://www.w3.org/2000/svg" viewBox="0 0 100 100">
  <defs>
    <style>
      .cls-1 {
        fill: #69c0b0;
      }

      .cls-2 {
        fill: #fff;
      }
    </style>
  </defs>
  <rect class="cls-1" x="0" y="0" width="100" height="100" rx="50" ry="50"/>
  <path class="cls-2" d="M50.36,64.23c-.43,1.67-.91,3.47-1.44,5.42-.53,1.95-.94,3.94-1.25,5.98-.31,2.04-.48,4.08-.51,6.11-.03,2.04.23,3.98.79,5.84-.56.31-1.2.54-1.95.69-.74.15-1.45.26-2.13.32-.74.12-1.51.15-2.32.09-1.05,0-1.85-.22-2.41-.65-.56-.43-.94-1-1.16-1.71-.22-.71-.26-1.54-.14-2.5.12-.96.37-1.96.74-3.01.62-2.1,1.9-6.45,3.84-13.06,1.95-6.61,4.03-15.66,6.25-27.14.37-1.98.69-3.72.97-5.23.28-1.51.54-2.79.79-3.84-.87-.56-1.73-1.22-2.59-1.99-.87-.77-1.54-1.5-2.04-2.18.06-.19.54-.77,1.44-1.76.89-.99,1.93-2.04,3.1-3.15,1.17-1.11,2.35-2.1,3.52-2.96,1.17-.86,2.13-1.3,2.87-1.3.31,0,.69.16,1.16.46.46.31.93.66,1.39,1.07.46.4.83.83,1.11,1.3.28.46.38.85.32,1.16l-10.38,42.06Z"/>
</svg>