<?xml version="1.0" encoding="UTF-8"?>
<svg id="Layer_1" data-name="Layer 1" xmlns="http://www.w3.org/2000/svg" viewBox="0 0 100 100">
  <defs>
    <style>
      .cls-1 {
        fill: #69c0b0;
      }

      .cls-2 {
        fill: #fff;
      }
    </style>
  </defs>
  <rect class="cls-1" x="0" y="0" width="100" height="100" rx="50" ry="50"/>
  <path class="cls-2" d="M66.44,62.04c-.06,2.41-.62,5.02-1.67,7.83-1.05,2.81-2.52,5.42-4.4,7.83-1.88,2.41-4.14,4.42-6.76,6.02-2.63,1.61-5.54,2.41-8.75,2.41s-5.9-.48-7.87-1.44c-1.98-.96-3.52-2.11-4.63-3.47-1.11-1.36-1.85-2.78-2.22-4.26-.37-1.48-.56-2.72-.56-3.71s.39-1.76,1.16-2.32c.77-.56,1.68-.97,2.73-1.25,1.05-.28,2.13-.46,3.24-.56,1.11-.09,2.04-.14,2.78-.14-.19.56-.34,1.45-.46,2.69-.12,1.24,0,2.46.37,3.66.37,1.2,1.08,2.27,2.13,3.2,1.05.93,2.65,1.39,4.82,1.39,1.67,0,3.26-.6,4.77-1.81,1.51-1.2,2.84-2.73,3.98-4.59,1.14-1.85,2.05-3.89,2.73-6.11.68-2.22,1.05-4.35,1.11-6.39.06-2.1-.37-3.83-1.3-5.19-.93-1.36-2.38-2.04-4.35-2.04-.8,0-1.64.09-2.5.28-.74.12-1.57.36-2.5.69-.93.34-1.92.79-2.96,1.34l-2.04-5.28c2.1-.93,4.35-2.13,6.76-3.61s4.65-3.27,6.72-5.37c2.07-2.1,3.8-4.49,5.19-7.18,1.39-2.69,2.15-5.7,2.27-9.03.12-1.98-.39-3.58-1.53-4.82-1.14-1.23-2.83-1.85-5.05-1.85-1.11,0-2.33.26-3.66.79-1.33.53-2.58,1.27-3.75,2.22-1.17.96-2.15,2.12-2.92,3.47-.77,1.36-1.19,2.87-1.25,4.54,0,.93.12,1.73.37,2.41.19.62.51,1.17.97,1.67.46.5,1.13.74,1.99.74-.87.62-1.68,1.1-2.46,1.44-.77.34-1.44.57-1.99.69-.68.19-1.3.28-1.85.28-.74,0-1.47-.12-2.18-.37-.71-.25-1.34-.65-1.9-1.2s-1-1.3-1.34-2.22c-.34-.93-.48-2.07-.42-3.43.06-1.36.48-2.96,1.25-4.82.77-1.85,1.99-3.61,3.66-5.28,1.67-1.67,3.83-3.09,6.48-4.26,2.65-1.17,5.93-1.76,9.82-1.76,1.73,0,3.43.26,5.1.79,1.67.53,3.15,1.34,4.45,2.46s2.32,2.52,3.06,4.22c.74,1.7,1.08,3.72,1.02,6.07-.06,1.85-.5,3.83-1.3,5.93-.8,2.1-1.92,4.17-3.34,6.21-1.42,2.04-3.14,3.98-5.14,5.84-2.01,1.85-4.28,3.49-6.81,4.91,1.11,0,2.33.17,3.66.51,1.33.34,2.53.94,3.61,1.81,1.08.87,1.98,2.05,2.69,3.57.71,1.51,1.03,3.47.97,5.88Z"/>
</svg>