<?xml version="1.0" encoding="UTF-8"?>
<svg id="Layer_1" data-name="Layer 1" xmlns="http://www.w3.org/2000/svg" viewBox="0 0 100 100">
  <defs>
    <style>
      .cls-1 {
        fill: #69c0b0;
      }

      .cls-2 {
        fill: #fff;
      }
    </style>
  </defs>
  <rect class="cls-1" x="0" y="0" width="100" height="100" rx="50" ry="50"/>
  <path class="cls-2" d="M50.09,77.2c.49-2.22,1.14-4.88,1.95-7.97.8-3.09,1.64-6.33,2.5-9.73-3.09.12-6.27.37-9.54.74-3.27.37-6.83,1.08-10.65,2.13-.5-.31-.93-.71-1.3-1.2-.37-.49-.71-.96-1.02-1.39-.31-.49-.62-1.02-.93-1.58-.56-1.24-.87-2.39-.93-3.47-.06-1.08.43-2.05,1.48-2.92.56-.43,1.31-1.14,2.27-2.13.96-.99,2.08-2.19,3.38-3.61,1.3-1.42,2.73-3.03,4.31-4.82,1.58-1.79,3.26-3.71,5.05-5.74,3.52-4.08,6.14-7.24,7.87-9.5,1.73-2.25,2.72-3.84,2.96-4.77,1.48-.62,2.81-1.1,3.98-1.44,1.17-.34,2.19-.63,3.06-.88l2.5-.55c1.79-.31,2.9-.19,3.33.37.43.56.4,1.73-.09,3.52-.25.87-.65,2.39-1.2,4.59-.56,2.19-1.19,4.71-1.9,7.55-.71,2.84-1.42,5.88-2.13,9.12-.71,3.24-1.38,6.35-1.99,9.31.93.12,1.76.32,2.5.6.74.28,1.36.65,1.85,1.11.49.46.79,1.05.88,1.76.09.71-.05,1.56-.42,2.55-.12.37-.31.8-.56,1.3-.37.87-.83,1.98-1.39,3.33-.31-.49-.68-.94-1.11-1.34-.43-.4-.9-.76-1.39-1.07-.56-.31-1.11-.59-1.67-.83-.93,5.56-1.67,10.65-2.22,15.29-.56,4.63-.77,8.34-.65,11.12-.74.68-1.5,1.19-2.27,1.53-.77.34-1.47.57-2.08.69-.74.19-1.45.28-2.13.28-1.48,0-2.47-.45-2.96-1.34-.5-.89-.71-2.05-.65-3.47.06-1.11.22-2.3.46-3.57.25-1.26.52-2.46.83-3.57ZM43.7,54.41c2.9-.12,5.33-.32,7.27-.6s3.69-.51,5.23-.69c.56-2.16,1.1-4.26,1.62-6.3.52-2.04,1.03-3.95,1.53-5.74.99-3.64,1.79-6.76,2.41-9.36.62-2.59,1.11-4.72,1.48-6.39-.74.93-1.62,2.01-2.64,3.24-1.02,1.24-2.12,2.55-3.29,3.94-1.17,1.39-2.36,2.81-3.57,4.26-1.2,1.45-2.36,2.83-3.47,4.12-2.1,2.53-4.23,5.05-6.39,7.55-2.16,2.5-3.98,4.65-5.47,6.44.68-.12,1.47-.2,2.36-.23.89-.03,1.87-.11,2.92-.23Z"/>
</svg>