<?xml version="1.0" encoding="UTF-8"?>
<svg id="Layer_1" data-name="Layer 1" xmlns="http://www.w3.org/2000/svg" viewBox="0 0 100 100">
  <defs>
    <style>
      .cls-1 {
        fill: #69c0b0;
      }

      .cls-2 {
        fill: #fff;
      }
    </style>
  </defs>
  <rect class="cls-1" x="0" y="0" width="100" height="100" rx="50" ry="50"/>
  <path class="cls-2" d="M54.35,26.15c-1.73,0-3.27.15-4.63.46-.43,1.24-.96,2.81-1.58,4.72-.62,1.92-1.28,4-1.99,6.25-.71,2.25-1.39,4.59-2.04,6.99s-1.22,4.76-1.71,7.04c.62-.74,1.39-1.53,2.32-2.36.93-.83,1.98-1.6,3.15-2.32,1.17-.71,2.44-1.31,3.8-1.81,1.36-.49,2.78-.74,4.26-.74,2.04,0,3.75.37,5.14,1.11,1.39.74,2.47,1.75,3.24,3.01.77,1.27,1.3,2.73,1.57,4.4.28,1.67.32,3.4.14,5.19-.31,3.77-1.17,7.54-2.59,11.3-1.42,3.77-3.24,7.15-5.47,10.14-2.22,3-4.76,5.44-7.6,7.32-2.84,1.88-5.81,2.83-8.89,2.83-1.61,0-3.1-.36-4.49-1.07-1.39-.71-2.61-1.62-3.66-2.73-1.05-1.11-1.87-2.36-2.46-3.75-.59-1.39-.82-2.76-.7-4.12.19-2.53,1.64-4.82,4.35-6.86.49-.43,1.02-.8,1.58-1.11.43-.31.89-.6,1.39-.88.49-.28.96-.48,1.39-.6-.37,2.96-.25,5.25.37,6.86.62,1.61,1.39,2.78,2.32,3.52,1.05.87,2.32,1.36,3.8,1.48,1.98,0,3.8-.57,5.47-1.71,1.67-1.14,3.1-2.61,4.31-4.4,1.21-1.79,2.18-3.83,2.92-6.11.74-2.28,1.21-4.6,1.39-6.95.31-3.09-.09-5.5-1.21-7.23-1.11-1.73-2.53-2.59-4.26-2.59-1.85,0-3.57.6-5.14,1.81-1.58,1.2-3.1,2.7-4.59,4.49-.56.68-1.17,1.13-1.85,1.34-.68.22-1.34.32-1.99.32s-1.25-.11-1.81-.32c-.56-.22-.99-.42-1.3-.6-.18-.12-.43-.32-.74-.6-.31-.28-.59-.69-.83-1.25-.25-.56-.39-1.3-.42-2.22-.03-.93.2-2.13.69-3.61.49-1.54,1.11-3.41,1.85-5.6.74-2.19,1.48-4.46,2.22-6.81.74-2.35,1.45-4.6,2.13-6.76.68-2.16,1.2-3.98,1.58-5.47.55-2.1.88-3.44.97-4.03.09-.59.08-.91-.05-.97.31-.06,1.05-.25,2.22-.56,1.17-.31,2.64-.62,4.4-.93,1.76-.31,3.74-.59,5.93-.83,2.19-.25,4.4-.37,6.62-.37,2.41,0,4.35.11,5.84.32,1.48.22,2.58.6,3.29,1.16.71.56,1.1,1.34,1.16,2.36s-.12,2.3-.56,3.84c-.19.56-.43,1.14-.74,1.76-.31.5-.69,1.07-1.16,1.71-.46.65-1.03,1.31-1.71,1.99-.68-1.36-1.87-2.42-3.57-3.2-1.7-.77-3.44-1.31-5.23-1.62-2.1-.37-4.39-.59-6.86-.65ZM44.63,21.15c.06-.06.09-.06.09,0h-.09Z"/>
</svg>